<svg fill="none" height="48" viewBox="0 0 48 48" width="48" xmlns="http://www.w3.org/2000/svg">
    <path d="m24 45c-11.598 0-21-9.402-21-21s9.402-21 21-21 21 9.402 21 21-9.402 21-21 21z" fill="#ffffff"/>
    <path d="m34.7304 26.9828c1.1765-1.9355 1.5594-4.3335 1.0476-6.5631-1.0934-5.0789-7.1482-7.1542-10.9198-3.7507-.2986.2678-.5643.5765-.8582.8843-.2939-.3078-.5596-.6165-.8582-.8843-3.7716-3.4035-9.8264-1.3282-10.9198 3.7507-.5118 2.2296-.129 4.6276 1.0477 6.5631 2.0034 3.3009 5.2007 5.8909 8.3552 8.2336 1.4069 1.0448 3.3433 1.0448 4.7502 0 3.1545-2.3427 6.3518-4.9327 8.3553-8.2336z" fill="#adb0b3"/>
</svg>